<svg width="44" height="44" viewBox="0 0 44 44" fill="none" xmlns="http://www.w3.org/2000/svg">
<path d="M12.7778 34.5H32.2222C32.9589 34.5 33.6655 34.2073 34.1864 33.6864C34.7073 33.1655 35 32.4589 35 31.7222V16.4445C35.001 16.2617 34.966 16.0805 34.8969 15.9113C34.8278 15.742 34.7259 15.5881 34.5972 15.4584L29.0416 9.9028C28.9119 9.77408 28.758 9.67224 28.5887 9.60312C28.4195 9.534 28.2383 9.49897 28.0555 9.50002H12.7778C12.0411 9.50002 11.3345 9.79268 10.8136 10.3136C10.2927 10.8345 10 11.5411 10 12.2778V31.7222C10 32.4589 10.2927 33.1655 10.8136 33.6864C11.3345 34.2073 12.0411 34.5 12.7778 34.5ZM26.6667 31.7222H18.3333V24.7778H26.6667V31.7222ZM23.8889 15.0556H21.1111V12.2778H23.8889V15.0556ZM12.7778 12.2778H15.5556V17.8333H26.6667V12.2778H27.4861L32.2222 17.0139V31.7222H29.4444V24.7778C29.4444 24.0411 29.1518 23.3345 28.6308 22.8136C28.1099 22.2927 27.4034 22 26.6667 22H18.3333C17.5966 22 16.8901 22.2927 16.3691 22.8136C15.8482 23.3345 15.5556 24.0411 15.5556 24.7778V31.7222H12.7778V12.2778Z" fill="#FF7373"/>
</svg>
